# xmcd CD database file
#
# Track frame offsets:
#	150
#	13284
#	32259
#	44709
#	56859
#	72759
#	87571
#	100471
#	114459
#	129609
#	145081
#	154831
#	168106
#	180090
#
# Disc length: 2585 seconds
#
# Revision: 3
# Processed by: cddbd v1.5.2PL0 Copyright (c) Steve Scherf et al.
# Submitted via: CDex 1.51
#
DISCID=bc0a170e
DTITLE=Jesus Costa - Al Hilo de la Tradicion
DYEAR=2003
DGENRE=FCyC
TTITLE0=1. La Alondra
TTITLE1=2. Diana de Agapito
TTITLE2=3. Entradilla de San Lorenzo
TTITLE3=4. La Pinariega
TTITLE4=5. Baile Corrido de Jesús Costa
TTITLE5=6. Antigua Jota de Segovia
TTITLE6=7. La Traviesa
TTITLE7=8. La Entradilla
TTITLE8=9. Granadillo Blanco
TTITLE9=10. Diana de Casadero
TTITLE10=11. Entrada Baile de Rueda
TTITLE11=12. Jota de Inés
TTITLE12=13. Baile Corrido de Rueda
TTITLE13=14. Bonus Track_Entradilla a dos voces
EXTD=YEAR: 2003
EXTT0=
EXTT1=
EXTT2=
EXTT3=
EXTT4=
EXTT5=
EXTT6=
EXTT7=
EXTT8=
EXTT9=
EXTT10=
EXTT11=
EXTT12=
EXTT13=
PLAYORDER=
